<svg width="603" height="603" viewBox="0 0 603 603" xmlns="http://www.w3.org/2000/svg" xmlns:xlink="http://www.w3.org/1999/xlink"><title>Group 2</title><defs><radialGradient cx="49.689%" fx="49.689%" fy="50%" r="55.056%" id="a"><stop stop-color="#2EC853" offset="0%"/><stop stop-color="#1B7230" offset="100%"/></radialGradient><circle id="b" cx="276.49" cy="276.49" r="276.49"/><linearGradient x1="50%" y1="0%" x2="50%" y2="100%" id="c"><stop stop-color="#FFF" stop-opacity=".5" offset="0%"/><stop stop-opacity=".5" offset="100%"/></linearGradient><path id="d" d="M188 255h60.24v65.3H188z"/><path id="e" d="M271 206h106.8v113.74H271z"/></defs><g transform="translate(25 25)" fill="none" fill-rule="evenodd"><use fill="url(#a)" xlink:href="#b"/><circle stroke="#FFF" stroke-width="25" cx="276.49" cy="276.49" r="288.99"/><path d="M120 202H81.5" stroke="#FFF" stroke-width="20" fill="url(#c)" stroke-linecap="square"/><path d="M123.5 232H57" stroke="#FFF" stroke-width="20" stroke-linecap="square"/><path d="M143.001 159H447.29c9.389 0 17 7.611 17 17a17 17 0 0 1-1.014 5.782L409.323 330.96a17 17 0 0 1-15.987 11.218h-228.03a17 17 0 0 1-16.814-14.486l-22.304-149.178c-1.388-9.286 5.014-17.939 14.3-19.327A17 17 0 0 1 143 159z" stroke="#FFF" stroke-width="18"/><circle fill="#FFF" cx="233.61" cy="414.61" r="41.61"/><circle fill="#FFF" cx="333.61" cy="414.61" r="41.61"/><use fill="#660B0B" xlink:href="#d"/><path stroke="#F31B1B" stroke-width="12" d="M182 249h72.24v77.3H182z"/><g><use fill="#19125C" xlink:href="#e"/><path stroke="#8891EB" stroke-width="11" d="M265.5 200.5h117.8v124.74H265.5z"/></g></g></svg>